<svg width="511" height="161" viewBox="0 0 511 161" fill="none" xmlns="http://www.w3.org/2000/svg">
<g clip-path="url(#clip0_4514_90)">
<path d="M80 37.1665C72.84 33.2598 62.78 27.1665 53.3334 27.1665C39.3334 27.1665 26.6667 35.4798 26.6667 60.4998C26.6667 93.1599 33.7067 116.567 44.4734 130.747C48.2934 135.787 57.6067 134.22 61.5867 129.173C64.24 125.807 67.0467 119.58 70 110.5C71.9467 105.36 75.9467 100.473 80 100.5C84.0134 100.5 88.0667 105.413 90.0001 110.5C92.9534 119.58 95.7601 125.8 98.4134 129.167C102.393 134.227 111.747 135.787 115.527 130.747C126.293 116.567 133.333 93.1665 133.333 60.4998C133.333 35.5665 120.613 27.1665 106.667 27.1665C97.1801 27.1665 87.2 33.2398 80 37.1665Z" stroke="#0E0E0E" stroke-width="10" stroke-linecap="round" stroke-linejoin="round"/>
<path d="M80 37.1665L100 47.1665" stroke="#0E0E0E" stroke-width="10" stroke-linecap="round" stroke-linejoin="round"/>
</g>
<path d="M196.224 127.536C190.421 127.536 185.173 126.256 180.48 123.696C175.787 121.051 172.075 117.296 169.344 112.432C166.613 107.483 165.248 101.552 165.248 94.64C165.248 87.8133 166.613 81.9253 169.344 76.976C172.16 72.0267 175.787 68.2293 180.224 65.584C184.661 62.9387 189.312 61.616 194.176 61.616C199.893 61.616 204.672 62.896 208.512 65.456C212.352 67.9307 215.253 71.4293 217.216 75.952C219.179 80.3893 220.16 85.552 220.16 91.44C220.16 94.512 219.947 96.9013 219.52 98.608H179.584C180.267 104.155 182.272 108.464 185.6 111.536C188.928 114.608 193.109 116.144 198.144 116.144C200.875 116.144 203.392 115.76 205.696 114.992C208.085 114.139 210.432 112.987 212.736 111.536L217.728 120.752C214.741 122.715 211.413 124.336 207.744 125.616C204.075 126.896 200.235 127.536 196.224 127.536ZM179.456 88.624H207.36C207.36 83.76 206.293 79.9627 204.16 77.232C202.027 74.416 198.827 73.008 194.56 73.008C190.891 73.008 187.605 74.3733 184.704 77.104C181.888 79.7493 180.139 83.5893 179.456 88.624ZM242.795 127.536C238.528 127.536 234.262 126.725 229.995 125.104C225.728 123.397 222.059 121.307 218.987 118.832L225.899 109.36C228.715 111.493 231.531 113.2 234.347 114.48C237.163 115.76 240.15 116.4 243.307 116.4C246.72 116.4 249.238 115.675 250.859 114.224C252.48 112.773 253.291 110.981 253.291 108.848C253.291 107.056 252.608 105.605 251.243 104.496C249.963 103.301 248.299 102.277 246.251 101.424C244.203 100.485 242.07 99.5893 239.851 98.736C237.12 97.712 234.39 96.4747 231.659 95.024C229.014 93.488 226.838 91.568 225.131 89.264C223.424 86.8747 222.571 83.9307 222.571 80.432C222.571 74.8853 224.619 70.3627 228.715 66.864C232.811 63.3653 238.358 61.616 245.355 61.616C249.792 61.616 253.76 62.384 257.259 63.92C260.758 65.456 263.787 67.2053 266.347 69.168L259.563 78.128C257.344 76.5067 255.083 75.2267 252.779 74.288C250.56 73.264 248.214 72.752 245.739 72.752C242.582 72.752 240.235 73.4347 238.699 74.8C237.163 76.08 236.395 77.7013 236.395 79.664C236.395 82.1387 237.675 84.016 240.235 85.296C242.795 86.576 245.782 87.8133 249.195 89.008C252.096 90.032 254.912 91.312 257.643 92.848C260.374 94.2987 262.635 96.2187 264.427 98.608C266.304 100.997 267.243 104.155 267.243 108.08C267.243 113.456 265.152 118.064 260.971 121.904C256.79 125.659 250.731 127.536 242.795 127.536ZM293.44 127.536C285.589 127.536 279.317 124.635 274.624 118.832C269.931 113.029 267.584 104.965 267.584 94.64C267.584 87.8133 268.821 81.9253 271.296 76.976C273.856 72.0267 277.184 68.2293 281.28 65.584C285.376 62.9387 289.685 61.616 294.208 61.616C297.792 61.616 300.821 62.256 303.296 63.536C305.856 64.7307 308.331 66.3947 310.72 68.528L310.208 58.416V35.632H324.928V126H312.768L311.744 119.216H311.232C308.928 121.52 306.24 123.483 303.168 125.104C300.096 126.725 296.853 127.536 293.44 127.536ZM297.024 115.376C301.717 115.376 306.112 113.029 310.208 108.336V79.024C308.075 77.0613 305.941 75.696 303.808 74.928C301.675 74.16 299.541 73.776 297.408 73.776C293.397 73.776 289.941 75.6107 287.04 79.28C284.224 82.864 282.816 87.9413 282.816 94.512C282.816 101.253 284.053 106.416 286.528 110C289.003 113.584 292.501 115.376 297.024 115.376ZM361.594 127.536C355.791 127.536 350.543 126.256 345.85 123.696C341.157 121.051 337.445 117.296 334.714 112.432C331.983 107.483 330.618 101.552 330.618 94.64C330.618 87.8133 331.983 81.9253 334.714 76.976C337.53 72.0267 341.157 68.2293 345.594 65.584C350.031 62.9387 354.682 61.616 359.546 61.616C365.263 61.616 370.042 62.896 373.882 65.456C377.722 67.9307 380.623 71.4293 382.586 75.952C384.549 80.3893 385.53 85.552 385.53 91.44C385.53 94.512 385.317 96.9013 384.89 98.608H344.954C345.637 104.155 347.642 108.464 350.97 111.536C354.298 114.608 358.479 116.144 363.514 116.144C366.245 116.144 368.762 115.76 371.066 114.992C373.455 114.139 375.802 112.987 378.106 111.536L383.098 120.752C380.111 122.715 376.783 124.336 373.114 125.616C369.445 126.896 365.605 127.536 361.594 127.536ZM344.826 88.624H372.73C372.73 83.76 371.663 79.9627 369.53 77.232C367.397 74.416 364.197 73.008 359.93 73.008C356.261 73.008 352.975 74.3733 350.074 77.104C347.258 79.7493 345.509 83.5893 344.826 88.624ZM390.629 126V63.152H402.789L403.813 71.6H404.325C407.141 68.8693 410.213 66.5227 413.541 64.56C416.869 62.5973 420.666 61.616 424.933 61.616C431.674 61.616 436.581 63.792 439.653 68.144C442.725 72.496 444.261 78.64 444.261 86.576V126H429.541V88.496C429.541 83.2907 428.773 79.6213 427.237 77.488C425.701 75.3547 423.184 74.288 419.685 74.288C416.954 74.288 414.522 74.9707 412.389 76.336C410.341 77.616 407.994 79.536 405.349 82.096V126H390.629ZM475.438 127.536C468.185 127.536 463.022 125.445 459.95 121.264C456.963 116.997 455.47 111.493 455.47 104.752V74.8H446.51V63.792L456.238 63.152L458.03 46H470.318V63.152H486.318V74.8H470.318V104.752C470.318 112.091 473.262 115.76 479.15 115.76C480.259 115.76 481.411 115.632 482.606 115.376C483.801 115.035 484.825 114.693 485.678 114.352L488.238 125.232C486.531 125.829 484.569 126.341 482.35 126.768C480.217 127.28 477.913 127.536 475.438 127.536Z" fill="#0E0E0E"/>
<defs>
<clipPath id="clip0_4514_90">
<rect width="160" height="160" fill="white" transform="translate(0 0.5)"/>
</clipPath>
</defs>
</svg>
